# xmcd
# Track frame offsets:
# 150
# 16930
# 33141
# 53703
# 69714
# 89402
# 105491
# 124628
# 138665
#
# Disc length: 2059 seconds
# Revision: 0
# Processed by: cddbd v1.5.1PL0 Copyright (c) Steve Scherf et al.
# Submitted via: VisiTrax 2.9.10.228 - For more info visit www.synapsa.com
#
DISCID=71080909
DTITLE=Various Artist - Hits Monthly Nashville  PHN0401
DYEAR=1900
DGENRE=Karaoke
TTITLE0=Coffey, Kellie - Texas Plates
TTITLE1=Bentley, Dierks - My Last Name
TTITLE2=Jackson, Alan - Remember When
TTITLE3=Jewell, Buddy - Sweet Southern Comfort
TTITLE4=Mcgraw, Tim - Watch The Wind Blow By
TTITLE5=Rogers, Kenny - Handprints On The Wall
TTITLE6=Dalley, Amy - I Think You're Beautiful
TTITLE7=Nichols, Joe - Cool To Be A Fool
TTITLE8=Adkins, Trace - Hot Mama
EXTD=
EXTT0=
EXTT1=
EXTT2=
EXTT3=
EXTT4=
EXTT5=
EXTT6=
EXTT7=
EXTT8=
PLAYORDER=
